<svg xmlns="http://www.w3.org/2000/svg" xmlns:xlink="http://www.w3.org/1999/xlink">
    <symbol viewBox="0 0 30 22" id="mais">
        <title>Mais</title>
        <line y1="1" x2="29.9891" y2="1" stroke="white" stroke-width="2"/>
        <line x1="0.0108643" y1="11" x2="30" y2="11" stroke="white" stroke-width="2"/>
        <line x1="0.0108643" y1="21" x2="30" y2="21" stroke="white" stroke-width="2"/>
    </symbol>

    <symbol viewBox="0 0 30 22" id="maisX">
        <title>MaisX</title>
        <line x1="1.10111" y1="20.8078" x2="24.0741" y2="1.53116" stroke="white" stroke-width="5"/>
        <line y1="-1" x2="29.9891" y2="-1" transform="matrix(-0.766044 -0.642788 -0.642788 0.766044 23.973 22.2767)" stroke="white" stroke-width="5"/>
    </symbol>
 
    <symbol viewBox="-23 -21 682 682.66669" id="whatsapp">
        <title>Whatsapp</title>
        <path d="m544.386719 93.007812c-59.875-59.945312-139.503907-92.9726558-224.335938-93.007812-174.804687 0-317.070312 142.261719-317.140625 317.113281-.023437 55.894531 14.578125 110.457031 42.332032 158.550781l-44.992188 164.335938 168.121094-44.101562c46.324218 25.269531 98.476562 38.585937 151.550781 38.601562h.132813c174.785156 0 317.066406-142.273438 317.132812-317.132812.035156-84.742188-32.921875-164.417969-92.800781-224.359376zm-224.335938 487.933594h-.109375c-47.296875-.019531-93.683594-12.730468-134.160156-36.742187l-9.621094-5.714844-99.765625 26.171875 26.628907-97.269531-6.269532-9.972657c-26.386718-41.96875-40.320312-90.476562-40.296875-140.28125.054688-145.332031 118.304688-263.570312 263.699219-263.570312 70.40625.023438 136.589844 27.476562 186.355469 77.300781s77.15625 116.050781 77.132812 186.484375c-.0625 145.34375-118.304687 263.59375-263.59375 263.59375zm144.585938-197.417968c-7.921875-3.96875-46.882813-23.132813-54.148438-25.78125-7.257812-2.644532-12.546875-3.960938-17.824219 3.96875-5.285156 7.929687-20.46875 25.78125-25.09375 31.066406-4.625 5.289062-9.242187 5.953125-17.167968 1.984375-7.925782-3.964844-33.457032-12.335938-63.726563-39.332031-23.554687-21.011719-39.457031-46.960938-44.082031-54.890626-4.617188-7.9375-.039062-11.8125 3.476562-16.171874 8.578126-10.652344 17.167969-21.820313 19.808594-27.105469 2.644532-5.289063 1.320313-9.917969-.664062-13.882813-1.976563-3.964844-17.824219-42.96875-24.425782-58.839844-6.4375-15.445312-12.964843-13.359374-17.832031-13.601562-4.617187-.230469-9.902343-.277344-15.1875-.277344-5.28125 0-13.867187 1.980469-21.132812 9.917969-7.261719 7.933594-27.730469 27.101563-27.730469 66.105469s28.394531 76.683594 32.355469 81.972656c3.960937 5.289062 55.878906 85.328125 135.367187 119.648438 18.90625 8.171874 33.664063 13.042968 45.175782 16.695312 18.984374 6.03125 36.253906 5.179688 49.910156 3.140625 15.226562-2.277344 46.878906-19.171875 53.488281-37.679687 6.601563-18.511719 6.601563-34.375 4.617187-37.683594-1.976562-3.304688-7.261718-5.285156-15.183593-9.253906zm0 0"/>
    </symbol>

    <symbol viewBox="0 0 24 24" id="instagram">
    <title>Instagram</title>
    <path d="m12.004 5.838c-3.403 0-6.158 2.758-6.158 6.158 0 3.403 2.758 6.158 6.158 6.158 3.403 0 6.158-2.758 6.158-6.158 0-3.403-2.758-6.158-6.158-6.158zm0 10.155c-2.209 0-3.997-1.789-3.997-3.997s1.789-3.997 3.997-3.997 3.997 1.789 3.997 3.997c.001 2.208-1.788 3.997-3.997 3.997z"/><path d="m16.948.076c-2.208-.103-7.677-.098-9.887 0-1.942.091-3.655.56-5.036 1.941-2.308 2.308-2.013 5.418-2.013 9.979 0 4.668-.26 7.706 2.013 9.979 2.317 2.316 5.472 2.013 9.979 2.013 4.624 0 6.22.003 7.855-.63 2.223-.863 3.901-2.85 4.065-6.419.104-2.209.098-7.677 0-9.887-.198-4.213-2.459-6.768-6.976-6.976zm3.495 20.372c-1.513 1.513-3.612 1.378-8.468 1.378-5 0-7.005.074-8.468-1.393-1.685-1.677-1.38-4.37-1.38-8.453 0-5.525-.567-9.504 4.978-9.788 1.274-.045 1.649-.06 4.856-.06l.045.03c5.329 0 9.51-.558 9.761 4.986.057 1.265.07 1.645.07 4.847-.001 4.942.093 6.959-1.394 8.453z"/><circle cx="18.406" cy="5.595" r="1.439"/>
    </symbol>

    <symbol viewBox="0 0 512 512" id="facebook">
        <title>Facebook</title>
        <path d="M452,0H60C26.916,0,0,26.916,0,60v392c0,33.084,26.916,60,60,60h392c33.084,0,60-26.916,60-60V60
			C512,26.916,485.084,0,452,0z M472,452c0,11.028-8.972,20-20,20H338V309h61.79L410,247h-72v-43c0-16.975,13.025-30,30-30h41v-62
			h-41c-50.923,0-91.978,41.25-91.978,92.174V247H216v62h60.022v163H60c-11.028,0-20-8.972-20-20V60c0-11.028,8.972-20,20-20h392
			c11.028,0,20,8.972,20,20V452z"/>
    </symbol>

    <symbol viewBox="0 0 50 50" id="telefone">
        <title>Telefone</title>
        <path d="M48.1836 2.40335L38.0276 0.0596486C36.9241 -0.194252 35.7913 0.381908 35.3421 1.41704L30.6547 12.3543C30.2445 13.3113 30.518 14.4344 31.3285 15.0886L37.2463 19.9323C33.7308 27.4224 27.5883 33.6527 19.942 37.2366L15.0984 31.3188C14.4343 30.5082 13.3211 30.2348 12.364 30.645L1.42677 35.3324C0.381869 35.7913 -0.194291 36.9241 0.0596097 38.0276L2.40331 48.1837C2.64745 49.2383 3.58493 50 4.68842 50C29.6977 50 50 29.7368 50 4.68846C50 3.59473 49.2481 2.64749 48.1836 2.40335Z" fill="white"/>
    </symbol>

    <symbol viewBox="0 0 50 67" id="local">
        <title>Local</title>
        <path d="M22.4307 65.3216C3.51172 37.8947 0 35.0798 0 25C0 11.1928 11.1928 0 25 0C38.8072 0 50 11.1928 50 25C50 35.0798 46.4883 37.8947 27.5693 65.3216C26.3277 67.1151 23.6721 67.115 22.4307 65.3216ZM25 35.4167C30.753 35.4167 35.4167 30.753 35.4167 25C35.4167 19.247 30.753 14.5833 25 14.5833C19.247 14.5833 14.5833 19.247 14.5833 25C14.5833 30.753 19.247 35.4167 25 35.4167Z" fill="white"/>
    </symbol>

    <symbol viewBox="0 0 50 67" id="email">
        <title>Email</title>
        <path d="M49.0527 12.3828C49.4336 12.0801 50 12.3633 50 12.8418V32.8125C50 35.4004 47.9004 37.5 45.3125 37.5H4.6875C2.09961 37.5 0 35.4004 0 32.8125V12.8516C0 12.3633 0.556641 12.0898 0.947266 12.3926C3.13477 14.0918 6.03516 16.25 15.9961 23.4863C18.0566 24.9902 21.5332 28.1543 25 28.1348C28.4863 28.1641 32.0312 24.9316 34.0137 23.4863C43.9746 16.25 46.8652 14.082 49.0527 12.3828ZM25 25C27.2656 25.0391 30.5273 22.1484 32.168 20.957C45.127 11.5527 46.1133 10.7324 49.1016 8.38867C49.668 7.94922 50 7.26562 50 6.54297V4.6875C50 2.09961 47.9004 0 45.3125 0H4.6875C2.09961 0 0 2.09961 0 4.6875V6.54297C0 7.26562 0.332031 7.93945 0.898438 8.38867C3.88672 10.7227 4.87305 11.5527 17.832 20.957C19.4727 22.1484 22.7344 25.0391 25 25Z" fill="white"/>
    </symbol>

    <symbol viewBox="0 0 50 67" id="relogio">
        <title>Relogio</title>
        <path d="M25 0C11.1895 0 0 11.1895 0 25C0 38.8105 11.1895 50 25 50C38.8105 50 50 38.8105 50 25C50 11.1895 38.8105 0 25 0ZM34.3236 31.5524L32.3075 34.0726C32.1752 34.238 32.0116 34.3757 31.826 34.4779C31.6405 34.5801 31.4366 34.6448 31.2261 34.6682C31.0156 34.6916 30.8025 34.6733 30.599 34.6143C30.3956 34.5554 30.2057 34.4569 30.0403 34.3246L23.2863 29.3125C22.8144 28.9347 22.4335 28.4556 22.1717 27.9106C21.91 27.3657 21.7741 26.7689 21.7742 26.1643V10.4839C21.7742 10.0561 21.9441 9.64585 22.2466 9.34338C22.5491 9.0409 22.9593 8.87097 23.3871 8.87097H26.6129C27.0407 8.87097 27.4509 9.0409 27.7534 9.34338C28.0559 9.64585 28.2258 10.0561 28.2258 10.4839V25L34.0726 29.2843C34.2381 29.4167 34.3758 29.5804 34.478 29.766C34.5802 29.9517 34.6448 30.1557 34.6681 30.3663C34.6914 30.577 34.673 30.7901 34.6139 30.9937C34.5548 31.1972 34.4561 31.387 34.3236 31.5524Z" fill="white"/>
    </symbol>

</svg>